Coordinates
version=1
nRows=14
nColumns=36
inDegrees=yes

Units are S.I. units (second, meters, Newtons, ...)
If the header above contains a line with 'inDegrees', this indicates whether rotational values are in degrees (yes) or radians (no).

endheader
time	pelvis_tilt	pelvis_list	pelvis_rotation	pelvis_tx	pelvis_ty	pelvis_tz	hip_flexion_r	hip_adduction_r	hip_rotation_r	knee_angle_r	knee_angle_r_beta	ankle_angle_r	subtalar_angle_r	mtp_angle_r	hip_flexion_l	hip_adduction_l	hip_rotation_l	knee_angle_l	knee_angle_l_beta	ankle_angle_l	subtalar_angle_l	mtp_angle_l	lumbar_extension	lumbar_bending	lumbar_rotation	arm_flex_r	arm_add_r	arm_rot_r	elbow_flex_r	pro_sup_r	arm_flex_l	arm_add_l	arm_rot_l	elbow_flex_l	pro_sup_l
      2.87500000	     -7.85137651	      1.66114762	      1.49618288	      0.20809668	      0.74447567	     -0.07862351	     59.06755898	     -0.72007882	      8.45785688	     78.37609043	      1.36792083	     23.36845318	    -20.59899955	     -7.49999987	     57.82831025	      4.20121383	     10.07924683	     84.24250001	      1.47030900	     22.21713547	    -17.82818691	     -7.49999987	    -16.69226819	      0.74500232	     -2.56464414	      2.77377630	    -45.13499297	    -27.62971056	    118.16754134	     84.36525689	    170.18979593	   -107.37387629	    115.29432583	    118.17692943	     79.96559814
      2.87916670	     -8.15086324	      1.69760359	      1.39894618	      0.21117450	      0.74070629	     -0.07838272	     59.67814089	     -0.59148099	      8.54072442	     79.13065560	      1.38109048	     24.06405256	    -20.02287854	     -7.49999987	     58.37667169	      4.22486686	     10.00060600	     85.11559888	      1.48554745	     22.63421575	    -17.92648722	     -7.49999987	    -16.87024434	      0.80305061	     -2.93099666	      1.29627115	    -43.09818366	    -28.78128900	    114.54659982	     83.45116236	    167.93642558	   -109.79679940	    114.32008013	    117.22290862	     79.20016446
      2.88333330	     -8.85263522	      1.79533411	      1.22086802	      0.21378629	      0.72887549	     -0.07685066	     61.29822345	     -0.44700329	      8.54594719	     80.94304653	      1.41272267	     24.87158690	    -20.08946966	     -7.49999987	     59.68671657	      4.10612474	      9.86349024	     86.54283160	      1.51045736	     23.68612494	    -17.18208076	     -7.49999987	    -16.47325536	      0.72116224	     -2.76194042	     -0.86246518	    -41.57947646	    -30.35182163	    112.31967895	     83.72591918	    166.66415107	   -111.39642070	    114.23091253	    115.35248125	     79.50808125
      2.88750000	     -9.74771690	      1.90474837	      1.03650810	      0.21348987	      0.72268171	     -0.07659519	     63.12623102	     -0.27126590	      8.54789822	     82.41154781	      1.43835285	     25.46829339	    -19.89965702	     -7.49999987	     61.17704611	      4.02892586	      9.63836740	     87.82486004	      1.53283297	     24.62607204	    -16.71516182	     -7.49999987	    -16.11140512	      0.65903110	     -2.66300224	     -2.69803293	    -39.97502441	    -32.30619600	    109.08549071	     83.29129494	    164.60544119	   -113.33112801	    113.68573359	    113.03266867	     79.24686960
      2.89166670	    -10.06224328	      1.87835749	      0.90704190	      0.21471918	      0.72234477	     -0.07399289	     63.81548785	      0.03869347	      8.47097814	     83.17178552	      1.45162150	     26.00431027	    -20.01272089	     -7.49999987	     61.70525947	      3.72031100	      9.60956831	     88.36032667	      1.54217863	     25.03195475	    -16.68547959	     -7.49999987	    -16.50323487	      0.54015474	     -2.86182164	     -2.51941994	    -37.83431230	    -32.01937353	    106.22536655	     82.25004732	    163.22917207	   -115.45557914	    113.73773779	    111.73388724	     78.34144429
      2.89583330	    -10.74586299	      1.84712461	      0.71583001	      0.21902934	      0.71994641	     -0.07663585	     64.63057159	      0.14134259	      8.58608449	     83.48137801	      1.45702491	     25.84784459	    -20.11679722	     -7.49999987	     62.24093166	      3.63961508	      9.59146383	     88.53450308	      1.54521858	     25.48770672	    -16.63141013	     -7.49999987	    -16.03025198	      0.57579345	     -2.76817189	     -3.02955910	    -36.01387227	    -31.86975127	    101.99758767	     83.48756363	    162.90344583	   -117.68248800	    115.60799216	    109.62990979	     79.23905233
      2.90000000	    -11.02657963	      1.80196053	      0.50131828	      0.21936959	      0.71587330	     -0.07466252	     65.19534302	      0.28050419	      8.48818734	     84.02601989	      1.46653070	     26.25925366	    -19.82174448	     -7.49999987	     62.55216057	      3.32510134	      9.57203526	     88.91874580	      1.55192488	     26.15489850	    -16.64172583	     -7.49999987	    -16.53906290	      0.57488481	     -2.50903363	     -3.21634340	    -34.25609412	    -31.76716809	     99.58216357	     83.11373238	    162.46267018	   -119.76205218	    116.44914448	    108.79222969	     78.95985477
      2.90416670	    -11.76814300	      1.75776370	      0.33723385	      0.22183228	      0.71613947	     -0.07904181	     66.01133771	      0.12592519	      8.44411671	     84.24430946	      1.47034058	     25.96824245	    -19.92682278	     -7.49999987	     63.15908909	      3.47134224	      9.46007021	     89.12696972	      1.55555907	     26.31950971	    -16.96630375	     -7.49999987	    -16.09735415	      0.98337042	     -1.38917745	     -4.25174690	    -32.62256766	    -32.90521658	     95.73047788	     88.52797543	    166.95980617	   -122.04528595	    122.08972451	    106.07781322	     83.17440271
      2.90833330	    -12.47814578	      1.78657179	     -0.02652418	      0.22306446	      0.71195422	     -0.07891336	     66.85152504	      0.11840142	      8.38718806	     84.53100309	      1.47534432	     26.44922762	    -19.43785221	     -7.49999987	     63.93749908	      3.33880867	      9.40319247	     89.50501292	      1.56215717	     26.84734467	    -16.61677327	     -7.49999987	    -16.03036219	      1.78229462	     -1.64788740	     -3.14615191	    -31.73194932	    -31.40662563	     92.50862547	     86.66039130	    168.15169577	   -126.21872098	    121.19361392	     98.57326426	     81.81903111
      2.91250000	    -13.15128105	      1.79550817	     -0.32558673	      0.22562879	      0.70567313	     -0.07637628	     67.96088836	      0.27034128	      8.18712665	     85.45173632	      1.49141415	     27.18877799	    -18.97701485	     -7.49999987	     64.94686991	      3.04287086	      9.42950773	     90.37170999	      1.57728389	     27.66137477	    -15.76830397	     -7.49999987	    -15.99531883	      2.05013375	     -1.71205005	     -3.18798660	    -30.18552564	    -31.21465804	     89.86951716	     87.11013570	    169.18674169	   -129.17983533	    120.61937845	     94.53682264	     82.37195231
      2.91666670	    -13.78893095	      1.84680390	     -0.65073496	      0.22565075	      0.70247690	     -0.07708652	     69.13432780	      0.43996951	      8.27799585	     86.23546480	      1.50509279	     27.78865832	    -18.65335885	     -7.49999987	     66.03499336	      2.75866066	      9.28555760	     91.28416748	      1.59320928	     28.20792160	    -15.21845364	     -7.49999987	    -16.08425747	      1.91664751	     -1.47304037	     -3.81862935	    -28.56669447	    -31.55151359	     87.83141589	     86.70296422	    168.76106939	   -131.63317784	    121.24222074	     95.56751226	     82.22468271
      2.92083330	    -14.37490481	      1.91724169	     -0.83353494	      0.22797121	      0.70035611	     -0.07632813	     70.04773967	      0.54793116	      8.25645087	     86.76066700	      1.51425930	     28.00386218	    -18.33253805	     -7.49999987	     66.91262073	      2.41633856	      9.09675879	     91.90802862	      1.60409771	     28.45794945	    -14.90694850	     -7.49999987	    -16.13148425	      1.66187145	     -1.39370732	     -4.57012802	    -26.62666804	    -32.28842421	     85.56417834	     86.36540592	    166.66358490	   -133.82625950	    121.40690215	     95.76463712	     82.18140725
      2.92500000	    -14.82754162	      1.95234546	     -0.96020094	      0.22776009	      0.69924394	     -0.07600415	     70.65623630	      0.64354071	      8.14218797	     87.03276760	      1.51900835	     27.93687310	    -18.43202566	     -7.49999987	     67.56490632	      2.08432663	      8.88836420	     92.25626040	      1.61017550	     28.50141697	    -14.52664218	     -7.49999987	    -16.35731372	      1.39218786	     -1.66851330	     -4.67076513	    -24.47867657	    -32.53033104	     83.33281775	     85.74895403	    165.08615721	   -135.81932859	    121.67944034	     96.17199637	     81.75800589
      2.92916670	    -15.06829290	      2.06887453	     -1.13725981	      0.22734163	      0.69802995	     -0.07688758	     71.14629945	      0.59652763	      8.15196898	     87.22194736	      1.52231016	     27.61762070	    -18.58852034	     -7.49999987	     68.06668516	      1.83235176	      8.44616933	     92.56865703	      1.61562785	     28.52546376	    -14.50318468	     -7.49999987	    -16.90002962	      1.04155063	     -1.82169691	     -4.44253517	    -22.66985957	    -32.45988339	     80.64855124	     85.44203214	    164.07716385	   -137.52316518	    123.31589443	     96.24623975	     81.57115885
